<?xml version="1.0" encoding="UTF-8" standalone="no"?>
<!-- Created with Inkscape (http://www.inkscape.org/) -->

<svg
   xmlns:dc="http://purl.org/dc/elements/1.1/"
   xmlns:cc="http://creativecommons.org/ns#"
   xmlns:rdf="http://www.w3.org/1999/02/22-rdf-syntax-ns#"
   xmlns:svg="http://www.w3.org/2000/svg"
   xmlns="http://www.w3.org/2000/svg"
   xmlns:sodipodi="http://sodipodi.sourceforge.net/DTD/sodipodi-0.dtd"
   xmlns:inkscape="http://www.inkscape.org/namespaces/inkscape"
   width="744.09448819"
   height="1052.3622047"
   id="svg2"
   version="1.1"
   inkscape:version="0.91 r13725"
   sodipodi:docname="full.svg"
   inkscape:export-filename="/Users/marian/Dropbox/friends not food/full.png"
   inkscape:export-xdpi="90"
   inkscape:export-ydpi="90">
  <defs
     id="defs4" />
  <sodipodi:namedview
     id="base"
     pagecolor="#ffffff"
     bordercolor="#666666"
     borderopacity="1.0"
     inkscape:pageopacity="0.0"
     inkscape:pageshadow="2"
     inkscape:zoom="0.75"
     inkscape:cx="-52.333333"
     inkscape:cy="680"
     inkscape:document-units="px"
     inkscape:current-layer="layer1"
     showgrid="true"
     inkscape:window-width="1440"
     inkscape:window-height="808"
     inkscape:window-x="0"
     inkscape:window-y="1"
     inkscape:window-maximized="1"
     inkscape:snap-grids="true"
     inkscape:snap-page="true">
    <inkscape:grid
       type="xygrid"
       id="grid3567" />
  </sodipodi:namedview>
  <metadata
     id="metadata7">
    <rdf:RDF>
      <cc:Work
         rdf:about="">
        <dc:format>image/svg+xml</dc:format>
        <dc:type
           rdf:resource="http://purl.org/dc/dcmitype/StillImage" />
        <dc:title></dc:title>
        <cc:license
           rdf:resource="http://creativecommons.org/licenses/by-sa/3.0/" />
      </cc:Work>
      <cc:License
         rdf:about="http://creativecommons.org/licenses/by-sa/3.0/">
        <cc:permits
           rdf:resource="http://creativecommons.org/ns#Reproduction" />
        <cc:permits
           rdf:resource="http://creativecommons.org/ns#Distribution" />
        <cc:requires
           rdf:resource="http://creativecommons.org/ns#Notice" />
        <cc:requires
           rdf:resource="http://creativecommons.org/ns#Attribution" />
        <cc:permits
           rdf:resource="http://creativecommons.org/ns#DerivativeWorks" />
        <cc:requires
           rdf:resource="http://creativecommons.org/ns#ShareAlike" />
      </cc:License>
    </rdf:RDF>
  </metadata>
  <g
     inkscape:label="Layer 1"
     inkscape:groupmode="layer"
     id="layer1">
    <g
       id="g3107"
       transform="translate(139.8713,30.262183)">
      <path
         id="path3083"
         d="M 37.7,13 C 30.4,5.9 20.7,14.5 7.8,2 c 8,12.9 22.4,6.5 28.5,12.3 L 37.7,13"
         inkscape:connector-curvature="0"
         style="fill:#ed4c5c" />
      <g
         id="g3085"
         style="fill:#ff717f">
        <path
           id="path3087"
           d="m 54.6,17.9 c 0,0 0,0 0,0"
           inkscape:connector-curvature="0" />
        <path
           id="path3089"
           d="M 48.6,16.5 59,11.1 C 43.1,14.8 36.3,10.6 33.4,15.5 26,14.3 23.6,19 23.6,19 c 0,0 -7.6,0.8 -8,6.5 -2.8,0.3 -6.3,2.9 -4.9,5.7 -3.4,2 -5.9,4.7 -3.3,7.3 -3.7,4.3 -2.3,6.2 -1.4,6.6 -0.9,6.6 1.5,7.2 2.3,7.4 0.1,2.6 0.9,6.1 4,9.6 0,0 2.4,-2.3 0.8,-5.3 0,0 1.7,2.1 4.2,1.8 0,0 0.2,-2.3 -1.3,-5.1 0,0 1.9,1.7 4.2,0.4 0,0 -2.4,-3.7 -6.6,-5.1 0.1,-1.1 -0.2,-2.5 -1,-4.2 0.8,-1.1 1.3,-2.7 1.4,-5.1 1.3,-0.9 2.5,-2.6 3.3,-5.5 1.1,-0.5 2.4,-1.5 3.6,-3.2 2.2,0.3 5.1,-0.5 8.5,-3.5 2.2,0 5,-1.1 8.3,-4.2 3.5,0.4 9,-0.8 17,-5.3 -0.2,0.1 -1.2,0.4 -6.1,-1.3"
           inkscape:connector-curvature="0" />
      </g>
      <path
         id="path3091"
         d="m 43.9,15.7 c -0.8,2.2 -3.2,3.4 -5.4,2.6 -2.2,-0.8 -3.4,-3.2 -2.6,-5.4 0.8,-2.2 3.2,-3.4 5.4,-2.6 2.2,0.8 3.4,3.2 2.6,5.4"
         inkscape:connector-curvature="0"
         style="fill:#ffffff" />
      <path
         id="path3093"
         d="m 41.8,15 c -0.4,1.1 -1.5,1.6 -2.6,1.3 -1.1,-0.4 -1.6,-1.5 -1.3,-2.6 0.4,-1.1 1.5,-1.6 2.6,-1.3 1.1,0.4 1.7,1.5 1.3,2.6"
         inkscape:connector-curvature="0"
         style="fill:#3e4347" />
      <g
         id="g3095"
         style="fill:#ed4c5c">
        <path
           id="path3097"
           d="m 12.3,54.7 c 0.5,2.6 0.1,7.3 0.1,7.3 1.9,-1.3 1.6,-4.2 1.6,-4.2 1.4,0.9 3.4,0.8 3.4,0.8 -3.8,-1.5 -5.1,-3.9 -5.1,-3.9"
           inkscape:connector-curvature="0" />
        <path
           id="path3099"
           d="m 37.1,30 c 0.2,-0.4 0.6,-0.4 0.1,-0.9 -1,-0.9 -4.8,0.6 -8.4,-1.4 0.2,-0.1 0.3,-0.3 0.5,-0.4 2.1,0.1 4.9,-0.9 8.3,-4.3 3.5,0.4 9,-0.8 16.9,-5.3 -1.1,0.5 -17.6,7.4 -21.9,-1 -0.6,1.8 -0.2,3.9 1.8,5.2 C 28,21.9 17.1,11.2 5,16.4 c 12.5,-2.6 19.3,5.5 27,7.4 -2.3,1.1 -5.5,1.8 -8.5,-0.5 0,0 1.1,2.3 3.4,3.4 -5.2,3.7 -11.5,-1.4 -11.5,-1.4 1,2.5 2.2,4 3.5,4.8 -3.7,4.3 -8.4,0.9 -8.4,0.9 1.7,2 3.2,3 4.6,3.2 -0.8,2.2 -3.1,6.2 -7.9,4.2 0,0 2.3,1.6 4.8,1.5 -0.1,1.6 -0.8,5.5 -6.2,5.1 0,0 2.8,1.5 5.1,0.8 0.7,1.6 1.3,4.8 -2.8,6.6 0,0 5.1,0.3 5.6,-3.2 1.8,1.2 2.9,2.7 2.9,2.7 -1,0.2 -3.4,-0.2 -3.4,-0.2 2.7,2.6 4,6.8 4,6.8 0.2,-2.7 -1.3,-5.1 -1.3,-5.1 2.1,1.8 4.2,0.4 4.2,0.4 -2.2,-3.2 -4.8,-4.5 -6.4,-5 0,-1 -0.3,-2.3 -1.1,-4 0.9,-1 1.5,-2.7 1.4,-5.6 1.1,-0.6 2.1,-1.9 2.7,-4 0.9,1.7 2.8,4.3 6.1,5.7 0.3,0.1 0.6,0.3 1,-0.2 3.2,2.9 2.4,6 3.1,6 0.4,0.4 1,1.3 1.1,3.2 0,0 1.2,-2 1,-4.2 1,0 -1.2,-4.4 -4.4,-6.6 0.4,-0.3 0.7,-0.2 0.5,-0.8 -0.6,-1.3 -5,-1.1 -7.5,-4.7 1.3,-0.6 2.3,-1.8 3,-2.8 0.8,1.2 3.5,4.5 8,5.4 0.3,0.1 0.7,0.1 0.9,-0.4 3.4,2.1 3.7,5.4 4.3,5.3 0.4,0.3 1.2,1.1 1.8,2.9 0,0 0.6,-2.1 0.1,-4.3 0.9,-0.3 -2.2,-4 -5.7,-5.6 0.3,-0.3 0.7,-0.3 0.3,-0.8 -0.8,-1.1 -4.6,-0.3 -7.8,-2.6 1.8,-0.3 3.5,-1.2 4.8,-2.2 1.3,1.2 4.4,3.5 8.5,3.5 0.3,0 0.7,0 0.8,-0.5 4.1,1.7 4.6,4.7 5.3,4.5 0.5,0.2 1.4,0.8 2.3,2.5 0,0 0.3,-2.5 -0.7,-4.2 C 44.6,34 40.8,30.9 37.1,30"
           inkscape:connector-curvature="0" />
      </g>
    </g>
    <g
       id="g3621"
       transform="translate(137.82204,170.22877)">
      <path
         id="path3539"
         d="m 27.7,12.2 c -3.8,5.2 -23.1,9.6 -23.1,9.6 0,0 2.8,-5.4 10.4,-8.8 0,0 -8,3.3 -13,1.5 0,0 7.7,-8.7 24,-10.2 l 1.7,7.9"
         inkscape:connector-curvature="0"
         style="fill:#f46c6c" />
      <path
         id="path3541"
         d="m 58.2,43.9 c 0,0 0,0 0,0"
         inkscape:connector-curvature="0"
         style="fill:#f8bd17" />
      <path
         id="path3543"
         d="m 60.9,27.1 c -0.7,-2.8 0.6,-5.8 -1.7,-6.9 -1.1,-0.5 -1.8,-2.1 -2,-3.3 -0.3,-1.3 -0.1,-2.3 -1.1,-3.2 -1,-0.9 -2.7,-1.5 -3.7,-2.4 C 51.5,10.4 51.8,9.1 51.1,8.1 50.2,6.8 49,6.4 47.5,6.2 46.1,6 45,5.5 43.9,4.6 42.8,3.7 41.7,2.7 40.2,2.8 39,2.8 37.8,3.4 36.6,3.3 35.2,3.3 34.3,2 32.9,2 31.8,2.1 31,3.1 30.1,3.5 29,4 27.9,3.4 26.7,3.5 c -1.1,0.1 -1.7,1.1 -2.2,2 -0.7,1.3 -1.9,1.4 -3,2.3 -0.7,0.5 -0.9,1.7 0,3.3 0.8,1.3 0.6,3.2 1.7,4.4 1.1,1.2 3.5,-0.6 4.8,0.1 1.6,0.8 2.1,1.7 4,2 1.2,0.2 2.9,2.7 3.7,3.2 1.2,0.6 3,1.8 3.7,2.8 0.6,0.9 1.1,3 1.3,4.1 0.2,1.3 -0.6,3.3 -1.4,3.9 -1.2,0.8 -2.6,2.3 -3.6,3.3 -1.7,1.6 -3.7,-0.3 -5.6,0.3 -1.2,0.3 -2.1,1.2 -3.3,1.2 -1.3,0 -2.5,-0.7 -3.9,-0.8 -1.6,-0.1 -3.9,1.6 -5,2.5 -1.4,1.2 -2.9,1.3 -4.5,2 -1.5,0.7 -2,2.1 -2.4,3.7 -0.4,1.5 -2.3,1.6 -2.7,2.4 -0.9,1.5 1.3,3.5 2.3,6.9 1.2,3.8 1.7,1.6 4.8,3.3 1.2,0.6 1.9,2.4 3.4,3 1.7,0.7 3.3,-0.5 4.9,0.5 1.1,0.7 1.6,2.5 3,2.2 1.3,-0.3 2.5,-2.3 3.9,-1.8 3.5,1.2 3.3,-0.5 6.5,-0.4 1.7,0 3.6,1.7 5.1,0.3 1.4,-1.2 2.3,-3.1 4.1,-3.3 3.5,-0.3 3.7,-3.1 6.4,-4.6 3.6,-2.1 4.9,-6.2 5.5,-8.3 0.8,-2.8 1.2,-5.9 3.3,-9.7 1.2,-2.5 0,-4.8 -0.6,-7.2"
         inkscape:connector-curvature="0"
         style="fill:#f8d317" />
      <g
         id="g3545"
         style="fill:#f8b100">
        <path
           id="path3547"
           d="m 21.8,42.1 c -1,1.1 -2.1,1.9 -3.2,2.3 1.5,1.1 3.6,0.8 4.9,-0.7 1.3,-1.5 1.4,-3.7 0.3,-5.2 -0.3,1.2 -1,2.4 -2,3.6"
           inkscape:connector-curvature="0" />
        <path
           id="path3549"
           d="m 32.3,46.7 c -1,1.1 -2.1,1.9 -3.2,2.3 1.5,1.1 3.6,0.8 4.9,-0.7 1.3,-1.5 1.4,-3.7 0.3,-5.2 -0.4,1.2 -1,2.5 -2,3.6"
           inkscape:connector-curvature="0" />
        <path
           id="path3551"
           d="m 25.3,54.7 c -1,1.1 -2.1,1.9 -3.2,2.3 1.5,1.1 3.6,0.8 4.9,-0.7 1.3,-1.5 1.4,-3.7 0.3,-5.2 -0.3,1.2 -1,2.5 -2,3.6"
           inkscape:connector-curvature="0" />
        <path
           id="path3553"
           d="m 39.9,53.2 c -1,1.1 -2.1,1.9 -3.2,2.3 1.5,1.1 3.6,0.8 4.9,-0.7 1.3,-1.5 1.4,-3.7 0.3,-5.2 -0.3,1.3 -1,2.5 -2,3.6"
           inkscape:connector-curvature="0" />
        <path
           id="path3555"
           d="m 52.6,45.5 c -1,1.1 -2.1,1.9 -3.2,2.3 1.5,1.1 3.6,0.8 4.9,-0.7 1.3,-1.5 1.4,-3.7 0.3,-5.2 -0.3,1.3 -1,2.5 -2,3.6"
           inkscape:connector-curvature="0" />
        <path
           id="path3557"
           d="m 38,37.5 c -1,1.1 -2.1,1.9 -3.2,2.3 1.5,1.1 3.6,0.8 4.9,-0.7 1.3,-1.5 1.4,-3.7 0.3,-5.2 -0.4,1.2 -1.1,2.4 -2,3.6"
           inkscape:connector-curvature="0" />
        <path
           id="path3559"
           d="m 45.5,40.4 c -1,1.1 -2.1,1.9 -3.2,2.3 1.5,1.1 3.6,0.8 4.9,-0.7 1.3,-1.5 1.4,-3.7 0.3,-5.2 -0.4,1.3 -1,2.5 -2,3.6"
           inkscape:connector-curvature="0" />
        <path
           id="path3561"
           d="m 48.7,28.4 c -1,1.1 -2.1,1.9 -3.2,2.3 1.5,1.1 3.6,0.8 4.9,-0.7 1.3,-1.5 1.4,-3.7 0.3,-5.2 -0.4,1.2 -1,2.4 -2,3.6"
           inkscape:connector-curvature="0" />
        <path
           id="path3563"
           d="m 41.3,19.1 c -1,1.1 -2.1,1.9 -3.2,2.3 1.5,1.1 3.6,0.8 4.9,-0.7 1.3,-1.5 1.4,-3.7 0.3,-5.2 -0.4,1.2 -1,2.4 -2,3.6"
           inkscape:connector-curvature="0" />
        <path
           id="path3565"
           d="m 51,17.5 c -1,1.1 -2.1,1.9 -3.2,2.3 1.5,1.1 3.6,0.8 4.9,-0.7 1.3,-1.5 1.4,-3.7 0.3,-5.2 -0.4,1.2 -1,2.5 -2,3.6"
           inkscape:connector-curvature="0" />
        <path
           id="path3567"
           d="m 41.1,10.1 c -1,1.1 -2.1,1.9 -3.2,2.3 1.5,1.1 3.6,0.8 4.9,-0.7 1.3,-1.5 1.4,-3.7 0.3,-5.2 -0.4,1.2 -1,2.4 -2,3.6"
           inkscape:connector-curvature="0" />
        <path
           id="path3569"
           d="m 31.6,10.4 c -1.1,1 -2.4,1.6 -3.5,1.9 1.4,1.3 3.5,1.3 5,0 1.5,-1.3 1.9,-3.5 1,-5.1 -0.6,1.1 -1.4,2.3 -2.5,3.2"
           inkscape:connector-curvature="0" />
        <path
           id="path3571"
           d="m 15.6,41.1 -1,1 1,1.1 1,-1.1 z"
           inkscape:connector-curvature="0" />
        <path
           id="path3573"
           d="m 16.5,48.3 -1,1 1,1 1,-1 z"
           inkscape:connector-curvature="0" />
        <path
           id="path3575"
           d="m 29.7,39.2 -1,1 1,1 1.1,-1 z"
           inkscape:connector-curvature="0" />
        <path
           id="path3577"
           d="m 39.7,44.4 -1,1 1,1 1,-1 z"
           inkscape:connector-curvature="0" />
        <path
           id="path3579"
           d="m 43.8,33.8 -1,1 1,1 1,-1 z"
           inkscape:connector-curvature="0" />
        <path
           id="path3581"
           d="m 54.4,33.2 -1.1,1 1.1,1 1,-1 z"
           inkscape:connector-curvature="0" />
        <path
           id="path3583"
           d="m 50.8,39.5 -1,1 1,1 1,-1 z"
           inkscape:connector-curvature="0" />
        <path
           id="path3585"
           d="m 47.2,50.2 -1,1 1,1 1.1,-1 z"
           inkscape:connector-curvature="0" />
        <path
           id="path3587"
           d="m 33.1,53.4 -1,1 1,1 1,-1 z"
           inkscape:connector-curvature="0" />
        <path
           id="path3589"
           d="m 18.6,52.7 -1,1 1,1 1,-1 z"
           inkscape:connector-curvature="0" />
        <path
           id="path3591"
           d="m 11.9,48.3 -1,1 1,1 1,-1 z"
           inkscape:connector-curvature="0" />
        <path
           id="path3593"
           d="m 58.2,36.2 -1,1 1,1 1,-1 z"
           inkscape:connector-curvature="0" />
        <path
           id="path3595"
           d="m 25.1,10.9 -1,1 1,1 1,-1 z"
           inkscape:connector-curvature="0" />
        <path
           id="path3597"
           d="m 55,22 -1,1 1,1.1 1.1,-1.1 z"
           inkscape:connector-curvature="0" />
        <path
           id="path3599"
           d="m 45.5,23.8 -1,1 1,1 1,-1 z"
           inkscape:connector-curvature="0" />
        <path
           id="path3601"
           d="m 49.3,13 -1,1 1,1 1,-1 z"
           inkscape:connector-curvature="0" />
        <path
           id="path3603"
           d="m 36.7,15.8 -1,1 1,1.1 1,-1.1 z"
           inkscape:connector-curvature="0" />
        <path
           id="path3605"
           d="m 39.1,5 -1,1 1,1 1,-1 z"
           inkscape:connector-curvature="0" />
        <path
           id="path3607"
           d="m 29.7,5.5 -1,1 1,1 1.1,-1 z"
           inkscape:connector-curvature="0" />
        <path
           id="path3609"
           d="m 24.6,46.2 -1,1 1,1 1,-1 z"
           inkscape:connector-curvature="0" />
        <path
           id="path3611"
           d="m 56.1,27.1 -1.1,1 1.1,1 1,-1 z"
           inkscape:connector-curvature="0" />
        <path
           id="path3613"
           d="m 46.5,8.2 -1,1 1,1 1,-1 z"
           inkscape:connector-curvature="0" />
      </g>
    </g>
    <g
       id="g3782"
       transform="translate(437.284,170.28932)">
      <path
         id="path3746"
         d="m 2,44.8 c 1.8,3.4 2.8,4.2 8.3,4.8 6.4,0.7 1.7,4.3 12.1,5.2 9.7,-4 5.2,-5.8 12.6,-9.1 11.2,-5 8.3,-7.5 14.6,-10.9 10.3,-5.4 6.3,-8.3 12.4,-11.5 -2,-3.8 -5,-2.4 -6.4,-5.1 -2.2,-4.3 -5.4,-1.9 -5.4,-7.3 -7.7,5 -4.7,7.3 -15.3,12.4 C 27.1,27 29.9,31 18.3,34.6 10.7,37 12,42.8 2,44.8"
         inkscape:connector-curvature="0"
         style="fill:#c94747" />
      <path
         id="path3748"
         d="M 3.3,46.9 C 15,45.8 10.2,38.3 20.6,36.4 29.2,34.8 30.6,28 38.4,26.1 45.5,24.3 41,20.5 51.1,14.2 c 1.6,1.4 3.2,1.2 4.1,3.2 -6.7,3.1 -5.3,8.5 -14.1,11.8 -11.1,4.2 -6.7,5.4 -17.5,9.9 -9,3.7 -8.5,8.3 -15.4,10.1 -0.1,0.1 -3.5,0.1 -4.9,-2.3"
         inkscape:connector-curvature="0"
         style="fill:#ffa6af" />
      <path
         id="path3750"
         d="m 13.7,50.8 c 9.4,-1.7 7.7,-8.2 13.3,-9.3 10.3,-2 10.3,-7.1 17.1,-10 8.9,-3.8 8.5,-8 13.4,-11.6 0,0 2,0.2 3.3,1.7 -5.7,3.4 -2.9,7.8 -13.4,11.9 -6.6,2.6 -5.5,6.6 -15.9,10.4 -6.6,2.4 -4.2,6.6 -13.9,9.9 -2.3,-0.4 -3.9,-3 -3.9,-3"
         inkscape:connector-curvature="0"
         style="fill:#fed0ac" />
      <g
         id="g3752"
         style="fill:#ffffff">
        <path
           id="path3754"
           d="m 56.1,23 c 0,0 -1.5,1.3 -2.5,3.7 -1.1,2.4 -5.2,2.4 -8.5,6.2 0,0 2.6,-1.8 5.8,-2.6 5.9,-1.7 3,-4.3 5.2,-7.3"
           inkscape:connector-curvature="0" />
        <path
           id="path3756"
           d="m 48.5,22.4 c -1.4,1.4 -3.4,3.1 -10.3,5.2 -4.4,1.3 -7.1,4.2 -8.7,6.3 -0.7,0.8 -2.4,2.5 -5.5,3.7 0,0 4.5,-1.1 7,-4.1 3,-3.6 4.6,-4.2 10.4,-6 5.4,-1.6 7.1,-5.1 7.1,-5.1"
           inkscape:connector-curvature="0" />
        <path
           id="path3758"
           d="m 22.7,42.4 c -4.5,0.9 -5,4.9 -10,6.6 0,0 3.6,-0.8 6.1,-3.6 1.8,-1.9 3.9,-3 3.9,-3"
           inkscape:connector-curvature="0" />
      </g>
      <path
         id="path3760"
         d="m 16,35.6 c 0,0 -0.9,0.5 -1.8,1.1 3.1,9 8.1,9 12.7,15.8 1.1,-0.7 1.5,-1.2 1.5,-1.2 C 31.7,43.2 16,35.6 16,35.6"
         inkscape:connector-curvature="0"
         style="opacity:0.7;fill:#3e4347" />
      <path
         id="path3762"
         d="M 47.2,40 C 35.3,31.9 39.9,28.3 32.5,21.4 22.3,11.9 26.6,10.4 19.7,2 17.7,8 15,4.2 11,8.3 8.5,10.8 5.6,8.1 2,11.7 c 5.7,5.8 0.2,7.6 9.9,17.4 5.9,6 1.8,7.8 12.6,17.4 7.1,6.3 1.4,6.7 11,14.7 12,2.7 8.1,-3 15.5,-1.5 6.4,1.3 7.9,0.8 11.1,-2.4 C 51.4,51.5 54.9,45.3 47.2,40"
         inkscape:connector-curvature="0"
         style="fill:#c94747" />
      <path
         id="path3764"
         d="M 59.8,59.2 C 46.9,53.8 55,47.1 44,41.2 34.9,36.3 35.7,28.2 27.7,23.3 20.3,18.7 26.8,16.1 17.6,5.4 c -2.3,1 -4,0.3 -5.7,2.2 6.5,5.9 3,11.4 11.7,18.4 11,8.7 5.7,8.5 16.2,17.4 8.8,7.4 6.6,12.4 13.7,16.9 0,-0.1 3.8,1 6.3,-1.1"
         inkscape:connector-curvature="0"
         style="fill:#ffa6af" />
      <path
         id="path3766"
         d="M 46.7,59.9 C 36.7,54.6 41,47.9 35,44.7 24.1,38.7 25.9,33 19.3,27.3 10.7,19.8 12.6,15.3 8.3,9.5 8.3,9.5 5.9,9 4,10.3 c 5.3,5.9 0.5,9.8 10.9,18.2 6.6,5.3 3.8,9.4 14.3,17.4 6.5,5 2.4,9 12.1,16.1 2.6,0.2 5.4,-2.1 5.4,-2.1"
         inkscape:connector-curvature="0"
         style="fill:#fed0ac" />
      <g
         id="g3768"
         style="fill:#ffffff">
        <path
           id="path3770"
           d="m 8.8,13.4 c 0,0 1.3,2 1.5,5 0.3,3.1 5,4.6 7.4,10 0,0 -2.3,-2.9 -5.6,-5 C 6,19.5 10.2,17.6 8.8,13.4"
           inkscape:connector-curvature="0" />
        <path
           id="path3772"
           d="m 17.6,15.5 c 1.1,2.1 2.7,4.7 9.8,9.5 4.5,3 6.5,7.2 7.6,10.2 0.4,1.2 1.8,3.7 4.9,6.2 0,0 -4.7,-2.9 -6.5,-7.1 C 31.3,29.2 29.7,27.9 23.8,23.8 18.2,20 17.6,15.5 17.6,15.5"
           inkscape:connector-curvature="0" />
        <path
           id="path3774"
           d="m 39.5,47.2 c 4.7,2.6 3.9,7.3 8.9,11 0,0 -3.8,-2.2 -5.6,-6.2 -1.4,-2.8 -3.3,-4.8 -3.3,-4.8"
           inkscape:connector-curvature="0" />
      </g>
    </g>
    <g
       id="g3950"
       transform="translate(437.37736,30.312183)">
      <path
         id="path3918"
         d="M 20.6,14.8 C 18.2,10.3 2.4,11.7 2.4,11.7 c 0,0 -1.9,16 2.7,18.5 3.5,1.9 17.4,-11.8 15.5,-15.4"
         inkscape:connector-curvature="0"
         style="fill:#fc97b2" />
      <path
         id="path3920"
         d="M 17.6,17.2 C 16.1,14.4 6.3,15.3 6.3,15.3 c 0,0 -1.1,10 1.7,11.5 2.2,1.2 10.8,-7.3 9.6,-9.6"
         inkscape:connector-curvature="0"
         style="fill:#ffd7e4" />
      <path
         id="path3922"
         d="M 58.7,30.1 C 63.2,27.7 61.8,12 61.8,12 61.8,12 45.7,10.1 43.2,14.7 41.3,18.2 55,32 58.7,30.1 Z"
         inkscape:connector-curvature="0"
         style="fill:#fc97b2" />
      <path
         id="path3924"
         d="m 56.2,27.1 c 2.8,-1.5 1.9,-11.2 1.9,-11.2 0,0 -10,-1.2 -11.6,1.7 -1.1,2.2 7.5,10.7 9.7,9.5"
         inkscape:connector-curvature="0"
         style="fill:#ffd7e4" />
      <path
         id="path3926"
         d="M 58.8,39.4 C 58.8,56.8 46.8,60 32,60 17.2,60 5.2,56.8 5.2,39.4 5.2,22 21.7,9.5 32,9.5 42.3,9.5 58.8,22 58.8,39.4 Z"
         inkscape:connector-curvature="0"
         style="fill:#fc97b2" />
      <path
         id="path3928"
         d="m 46,49.8 c 0,8.1 -6.3,7.2 -14,7.2 -7.7,0 -14,0.9 -14,-7.2 0,-8.1 6.3,-12.1 14,-12.1 7.7,0 14,4 14,12.1"
         inkscape:connector-curvature="0"
         style="fill:#ffd7e4" />
      <g
         id="g3930"
         style="fill:#bf7b90">
        <ellipse
           id="ellipse3932"
           ry="6.3000002"
           rx="3.4000001"
           cy="48"
           cx="25.700001" />
        <ellipse
           id="ellipse3934"
           ry="6.3000002"
           rx="3.4000001"
           cy="48"
           cx="38.299999" />
        <path
           id="path3936"
           d="m 32,22.6 c 0,0 -3,-10 -9.7,-11.9 0,0 3,-1.7 5.2,-0.9 0,0 0.1,-1.8 -1.8,-3.1 0,0 4.3,-0.9 6.5,2.1 0,0 0.3,-3.2 -0.5,-4.8 0,0 7.1,1.7 9,7.8 0,0 -7.3,2.1 -8.7,10.8"
           inkscape:connector-curvature="0" />
      </g>
      <g
         id="g3938"
         style="fill:#493b30">
        <ellipse
           id="ellipse3940"
           ry="5.5999999"
           rx="3.0999999"
           cy="34.599998"
           cx="15.6" />
        <ellipse
           id="ellipse3942"
           ry="5.5999999"
           rx="3.0999999"
           cy="34.400002"
           cx="48.400002" />
      </g>
    </g>
    <g
       id="g4180"
       transform="translate(237.70118,30.308103)">
      <g
         id="g4114"
         style="fill:#e08828">
        <path
           id="path4116"
           d="m 39.6,51.3 2.4,0 0,9.2 -2.4,0 z"
           inkscape:connector-curvature="0" />
        <path
           id="path4118"
           d="m 41.5,60.6 c 0,-0.5 1.7,-1.5 3.7,-1.5 2.1,0 3.7,1 3.7,1.5 0,0.5 -1.7,0.4 -3.7,0.4 -2.1,0 -3.7,0.1 -3.7,-0.4"
           inkscape:connector-curvature="0" />
        <path
           id="path4120"
           d="m 37.1,60.6 c 0,-0.5 1.7,-1.5 3.7,-1.5 2.1,0 3.7,1 3.7,1.5 0,0.5 -1.7,0.4 -3.7,0.4 -2.1,0 -3.7,0.1 -3.7,-0.4"
           inkscape:connector-curvature="0" />
        <path
           id="path4122"
           d="m 32.6,60.6 c 0,-0.5 1.7,-1.5 3.7,-1.5 2,0 3.7,1 3.7,1.5 0,0.5 -1.7,0.4 -3.7,0.4 -2,0 -3.7,0.1 -3.7,-0.4"
           inkscape:connector-curvature="0" />
        <path
           id="path4124"
           d="m 22,51.3 2.4,0 0,9.2 -2.4,0 z"
           inkscape:connector-curvature="0" />
        <path
           id="path4126"
           d="m 22.5,60.6 c 0,-0.5 -1.7,-1.5 -3.7,-1.5 -2.1,0 -3.7,1 -3.7,1.5 0,0.5 1.7,0.4 3.7,0.4 2.1,0 3.7,0.1 3.7,-0.4"
           inkscape:connector-curvature="0" />
        <path
           id="path4128"
           d="m 27,60.6 c 0,-0.5 -1.7,-1.5 -3.7,-1.5 -2.1,0 -3.7,1 -3.7,1.5 0,0.5 1.7,0.4 3.7,0.4 2,0 3.7,0.1 3.7,-0.4"
           inkscape:connector-curvature="0" />
        <path
           id="path4130"
           d="m 31.4,60.6 c 0,-0.5 -1.7,-1.5 -3.7,-1.5 -2,0 -3.7,1 -3.7,1.5 0,0.5 1.7,0.4 3.7,0.4 2,0 3.7,0.1 3.7,-0.4"
           inkscape:connector-curvature="0" />
      </g>
      <g
         id="g4132"
         style="fill:#ffbf3e">
        <path
           id="path4134"
           d="m 15.5,39.3 c 0,0 -16,-6.5 -12.8,-8.1 8.9,-4.3 12.8,8.1 12.8,8.1"
           inkscape:connector-curvature="0" />
        <path
           id="path4136"
           d="m 15.5,39.3 c 0,0 -13.6,-11.5 -10.4,-13.1 8.2,-3.9 10.4,13.1 10.4,13.1"
           inkscape:connector-curvature="0" />
        <path
           id="path4138"
           d="m 15.5,39.3 c 0,0 -17.6,-0.6 -12.6,-3.1 11.4,-5.5 12.6,3.1 12.6,3.1"
           inkscape:connector-curvature="0" />
        <path
           id="path4140"
           d="m 48.5,39.3 c 0,0 16,-6.5 12.8,-8.1 -8.9,-4.3 -12.8,8.1 -12.8,8.1"
           inkscape:connector-curvature="0" />
        <path
           id="path4142"
           d="m 48.5,39.3 c 0,0 13.6,-11.5 10.4,-13.1 -8.2,-3.9 -10.4,13.1 -10.4,13.1"
           inkscape:connector-curvature="0" />
        <path
           id="path4144"
           d="m 48.5,39.3 c 0,0 17.6,-0.6 12.6,-3.1 -11.4,-5.5 -12.6,3.1 -12.6,3.1"
           inkscape:connector-curvature="0" />
      </g>
      <g
         id="g4146"
         style="fill:#ffd93b">
        <path
           id="path4148"
           d="M 34,24.7 C 36.4,28.9 23.1,29.1 22.3,18.8 21.4,8.5 28,3 28,3 c 0,0 -0.5,10.4 6,21.7 z"
           inkscape:connector-curvature="0" />
        <path
           id="path4150"
           d="m 32.7,21.7 c -1.8,4.6 -10,-6.3 -2.6,-13.3 7.4,-7 15.6,-4.8 15.6,-4.8 0,0 -8.2,5.9 -13,18.1"
           inkscape:connector-curvature="0" />
        <path
           id="path4152"
           d="m 26.2,31.4 c 1.8,4.6 10,-6.3 2.6,-13.3 -7.4,-7 -15.6,-4.8 -15.6,-4.8 0,0 8.3,5.9 13,18.1"
           inkscape:connector-curvature="0" />
        <path
           id="path4154"
           d="m 50.8,39.9 c 0,11.2 -8.4,13 -18.8,13 -10.4,0 -18.8,-1.7 -18.8,-13 0,-23 9.2,-27.7 18.8,-27.7 9.6,-0.1 18.8,4.6 18.8,27.7"
           inkscape:connector-curvature="0" />
      </g>
      <path
         id="path4156"
         d="m 28.2,37 7.6,0 c 0,2.3 -1.9,3.9 -3.8,3.9 -1.9,0 -3.8,-1.6 -3.8,-3.9"
         inkscape:connector-curvature="0"
         style="fill:#e08828" />
      <path
         id="path4158"
         d="m 35.8,37 c 0,0 -2.4,1.1 -3.8,1.1 -1.4,0 -3.8,-1.1 -3.8,-1.1 0,-2.9 1.7,-5.2 3.8,-5.2 2.1,-0.1 3.8,2.3 3.8,5.2"
         inkscape:connector-curvature="0"
         style="fill:#f29a2e" />
      <g
         id="g4160"
         style="fill:#bc9342">
        <path
           id="path4162"
           d="M 44.7,26.4 C 44.3,25.7 43.9,24.9 43.3,24.3 42.7,23.7 42,23.2 41.1,23 c -0.8,-0.2 -1.8,-0.1 -2.5,0.4 -0.7,0.4 -1.3,1.1 -1.8,1.8 0.7,-0.5 1.3,-0.9 2,-1.2 0.7,-0.3 1.4,-0.3 2.1,-0.2 0.7,0.2 1.3,0.6 1.9,1 0.8,0.4 1.3,1 1.9,1.6"
           inkscape:connector-curvature="0" />
        <path
           id="path4164"
           d="m 19.3,26.4 c 0.4,-0.7 0.8,-1.5 1.4,-2.1 0.6,-0.6 1.3,-1.1 2.1,-1.3 0.9,-0.2 1.8,-0.1 2.5,0.4 0.7,0.4 1.3,1.1 1.8,1.8 -0.7,-0.5 -1.3,-0.9 -2,-1.2 -0.7,-0.3 -1.4,-0.3 -2.1,-0.2 -0.7,0.2 -1.3,0.6 -1.9,1 -0.7,0.4 -1.2,1 -1.8,1.6"
           inkscape:connector-curvature="0" />
      </g>
      <g
         id="g4166"
         style="fill:#3e4347">
        <path
           id="path4168"
           d="m 20.9,32.2 c 0,-1.4 1,-2.8 2.3,-2.8 1.3,0 2.3,1.5 2.3,2.8 0,1.3 -1,2 -2.3,2 -1.3,-0.1 -2.3,-0.7 -2.3,-2"
           inkscape:connector-curvature="0" />
        <path
           id="path4170"
           d="m 38.5,32.2 c 0,-1.4 1,-2.8 2.3,-2.8 1.3,0 2.3,1.5 2.3,2.8 0,1.3 -1,2 -2.3,2 -1.2,-0.1 -2.3,-0.7 -2.3,-2"
           inkscape:connector-curvature="0" />
      </g>
      <path
         id="path4172"
         d="m 44.1,51.1 c 0,-0.3 0.1,-0.6 0.1,-0.9 0,-4.3 -5.4,-7.8 -12.1,-7.8 -6.7,0 -12.1,3.5 -12.1,7.8 0,0.3 0,0.6 0.1,0.9 3.3,1.4 7.5,1.7 12.1,1.7 4.6,0 8.6,-0.3 11.9,-1.7"
         inkscape:connector-curvature="0"
         style="fill:#ffea92" />
    </g>
    <g
       id="g5126"
       transform="translate(337.47788,170.28778)">
      <path
         id="path5062"
         d="M 50,45 C 56,36.8 4.5,34.8 4.5,34.8 c 0,0 -1.2,1.7 -0.3,3 0.6,0.9 1.1,1.3 0.8,2.2 -0.3,1 0.8,2 1,3 0.3,1.6 -0.6,2.4 1.3,3.3 0.7,0.3 4.4,1.6 4.6,0 0.6,1.4 1.8,2.7 3.2,3.3 1.4,0.7 3.2,0.8 4.5,1.1 0.7,1.6 1.7,0.9 2.8,1.7 1.2,0.9 3,1.7 4.5,1.4 1.3,-0.2 1.2,-0.9 2.6,0.2 -0.1,1.6 1.4,0.9 2.5,1.3 1,0.3 5.2,0.3 5.8,0.5 0.6,0.3 -0.5,1.6 0.4,2.1 1.5,0.8 3.3,-2.8 4,-3.4 -0.1,0.6 -0.4,3.3 1,2.9 1.8,-0.5 1.3,-3.1 2.8,-3.6 1.7,-0.7 2.8,-1.7 3.2,-3.5 0.2,-0.7 0.2,-1.4 0.2,-2 1.1,-0.4 1.2,-2.7 0.6,-3.3"
         inkscape:connector-curvature="0"
         style="fill:#f7f2df" />
      <g
         id="g5064"
         style="fill:#e8e1d6">
        <path
           id="path5066"
           d="M 27.7,51.5 C 26,50.6 24.4,50.4 24,51 c -0.4,0.6 0.7,1.9 2.3,2.8 1.7,0.9 3.3,1.1 3.7,0.5 0.5,-0.7 -0.6,-1.9 -2.3,-2.8"
           inkscape:connector-curvature="0" />
        <path
           id="path5068"
           d="m 12,45.5 c -1.7,-0.8 -3.4,-1 -3.7,-0.3 -0.4,0.6 0.7,1.8 2.5,2.7 1.7,0.8 3.4,1 3.7,0.3 0.3,-0.7 -0.8,-1.9 -2.5,-2.7"
           inkscape:connector-curvature="0" />
        <path
           id="path5070"
           d="m 18.6,48.6 c -1.7,-0.8 -3.4,-1 -3.7,-0.3 -0.3,0.7 0.8,1.9 2.5,2.7 1.7,0.8 3.4,1 3.7,0.3 0.3,-0.7 -0.8,-1.9 -2.5,-2.7"
           inkscape:connector-curvature="0" />
        <path
           id="path5072"
           d="m 38.7,52.5 c 0.2,-0.5 0.3,-0.9 0.1,-1.2 -0.5,-0.6 -2.1,-0.2 -3.6,0.9 -1.5,1.1 -2.3,2.5 -1.8,3.1 0.2,0.3 0.7,0.3 1.3,0.2 -0.4,0.7 -0.5,1.3 -0.2,1.6 0.5,0.6 2.1,0 3.5,-1.2 1.4,-1.2 2.1,-2.7 1.6,-3.2 -0.3,-0.2 -0.6,-0.3 -0.9,-0.2"
           inkscape:connector-curvature="0" />
        <path
           id="path5074"
           d="m 33.3,50.1 c 0,0.1 0.1,0.2 0.1,0.2 0.5,0.6 2.1,0.2 3.6,-0.9 1.5,-1.1 2.3,-2.5 1.8,-3.1 -0.5,-0.6 -2.1,-0.2 -3.6,0.9 -0.1,0.1 -0.2,0.2 -0.3,0.3 0,-0.2 0,-0.4 -0.2,-0.5 -0.3,-0.4 -1.1,-0.3 -2,0.2 -0.3,0 -0.7,-0.1 -1,-0.1 -1.9,-0.1 -3.5,0.5 -3.5,1.2 0,0.5 0.7,1 1.8,1.2 -0.5,0.8 -0.7,1.5 -0.3,1.8 0.5,0.6 2.1,0 3.5,-1.2 0.1,0 0.1,0 0.1,0"
           inkscape:connector-curvature="0" />
        <path
           id="path5076"
           d="m 44.5,48 c -0.7,-0.3 -1.9,0.8 -2.7,2.4 -0.5,1 -0.8,3.5 -0.1,3.6 0.8,0 1.9,-0.8 2.7,-2.4 0.8,-1.7 0.8,-3.3 0.1,-3.6"
           inkscape:connector-curvature="0" />
        <path
           id="path5078"
           d="m 49.5,42 c -0.7,-0.3 -1.9,0.8 -2.7,2.4 -0.8,1.7 -0.8,3.3 -0.1,3.6 0.7,0.3 1.9,-0.8 2.7,-2.4 0.8,-1.7 0.8,-3.3 0.1,-3.6"
           inkscape:connector-curvature="0" />
        <path
           id="path5080"
           d="m 14,44.5 c -0.3,0.7 0.8,1.9 2.5,2.7 1.7,0.8 3.4,1 3.7,0.3 0.3,-0.7 -0.8,-1.9 -2.5,-2.7 C 16.1,44 14.4,43.9 14,44.5"
           inkscape:connector-curvature="0" />
        <path
           id="path5082"
           d="M 10,41.2 C 9.9,39.4 9.2,37.9 8.4,38 7.6,38 7.1,39.5 7.2,41.4 7.3,43.3 8,44.7 8.8,44.6 9.5,44.5 10.1,43 10,41.2"
           inkscape:connector-curvature="0" />
        <path
           id="path5084"
           d="m 15.4,42.6 c 1.1,-1.5 1.5,-3 0.9,-3.5 -0.6,-0.4 -2.1,0.4 -3.2,1.9 -1.1,1.5 -1.5,3 -0.9,3.5 0.7,0.4 2.1,-0.5 3.2,-1.9"
           inkscape:connector-curvature="0" />
        <path
           id="path5086"
           d="m 28.9,46.4 c 0,-0.7 -1.5,-1.4 -3.4,-1.5 -1.9,-0.1 -3.5,0.5 -3.5,1.2 0,0.7 1.5,1.4 3.4,1.5 1.9,0.1 3.5,-0.4 3.5,-1.2"
           inkscape:connector-curvature="0" />
      </g>
      <g
         id="g5088"
         style="fill:#3f4237">
        <path
           id="path5090"
           d="m 13.4,13.7 25.4,0 0,9.9 -25.4,0 z"
           inkscape:connector-curvature="0" />
        <path
           id="path5092"
           d="m 38.2,21.1 c 2.5,4.7 -2.4,10.3 -12.1,10.3 -9.6,0 -14.5,-5.6 -12.1,-10.3 1.8,-3.4 7,-5.5 12.1,-5.5 5.1,0.1 10.3,2.2 12.1,5.5"
           inkscape:connector-curvature="0" />
      </g>
      <path
         id="path5094"
         d="M 38.2,11.4 C 40.7,16.2 35.8,21.7 26.1,21.7 16.5,21.7 11.6,16.1 14,11.4 15.8,8.1 21,6 26.1,6 c 5.1,0 10.3,2.1 12.1,5.4"
         inkscape:connector-curvature="0"
         style="fill:#8cc63e" />
      <path
         id="path5096"
         d="m 37.1,11.4 c 2,4.2 -2.6,9 -11,9 -8.4,0 -13,-4.8 -11,-9 1.5,-3.1 6.2,-5.1 11,-5.1 4.8,0 9.5,2 11,5.1"
         inkscape:connector-curvature="0"
         style="fill:#ffeee2" />
      <path
         id="path5098"
         d="m 31.6,11.9 c 0.5,1.9 -2,3.8 -5.5,3.8 -3.5,0 -5.9,-1.8 -5.5,-3.8 0.4,-1.7 2.8,-2.8 5.5,-2.8 2.7,0 5.1,1.1 5.5,2.8"
         inkscape:connector-curvature="0"
         style="fill:#ff5555" />
      <g
         id="g5100"
         style="fill:#3f4237">
        <path
           id="path5102"
           d="m 36.6,21.4 25.4,0 0,9.9 -25.4,0 z"
           inkscape:connector-curvature="0" />
        <path
           id="path5104"
           d="m 61.4,28.8 c 2.5,4.7 -2.4,10.3 -12.1,10.3 -9.6,0 -14.5,-5.6 -12.1,-10.3 1.8,-3.4 7,-5.5 12.1,-5.5 5.1,0 10.3,2.2 12.1,5.5"
           inkscape:connector-curvature="0" />
      </g>
      <path
         id="path5106"
         d="m 61.4,19.1 c 2.5,4.7 -2.4,10.3 -12.1,10.3 -9.6,0 -14.5,-5.6 -12.1,-10.3 1.8,-3.4 7,-5.5 12.1,-5.5 5.1,0 10.3,2.2 12.1,5.5"
         inkscape:connector-curvature="0"
         style="fill:#8cc63e" />
      <path
         id="path5108"
         d="m 60.3,19.1 c 2,4.2 -2.6,9 -11,9 -8.4,0 -13,-4.8 -11,-9 1.5,-3.1 6.2,-5.1 11,-5.1 4.7,0.1 9.5,2 11,5.1"
         inkscape:connector-curvature="0"
         style="fill:#ffeee2" />
      <path
         id="path5110"
         d="m 54.8,19.6 c 0.5,1.9 -2,3.8 -5.5,3.8 -3.5,0 -5.9,-1.8 -5.5,-3.8 0.4,-1.7 2.8,-2.8 5.5,-2.8 2.7,0 5.1,1.1 5.5,2.8"
         inkscape:connector-curvature="0"
         style="fill:#ff5555" />
      <path
         id="path5112"
         d="M 2,31.2 C 1.9,33.4 3.5,36.3 5.8,37.7 8.1,39.1 42.2,52.2 44,50.3 45.7,48.4 37.3,37.6 32.6,35.6 20,30.2 2,31.2 2,31.2 Z"
         inkscape:connector-curvature="0"
         style="fill:#ec6430" />
      <path
         id="path5114"
         d="m 43.5,46.4 c -0.1,1.1 0.1,4.2 0.5,4 2.2,-1.6 8.3,-9.4 5.5,-15.7 l -6,11.7"
         inkscape:connector-curvature="0"
         style="fill:#e8491f" />
      <path
         id="path5116"
         d="m 2,31.2 c 0,0 5.6,-7 7.7,-7.8 5.9,-2.1 6.1,-2 10.5,-1 4.5,1 24.6,6 29.2,12.2 1.2,1.6 -4.7,12.2 -6,13 C 42.2,48.2 35.2,46.2 25.8,40.1 15.1,33.2 4.3,31.8 2,31.2"
         inkscape:connector-curvature="0"
         style="fill:#f3813b" />
      <path
         id="path5118"
         d="m 38.3,45.5 c -0.5,-0.3 -1.1,-0.6 -1.6,-0.9 -0.3,-3.3 0.9,-7.1 0.7,-10.4 -0.7,3 -2.4,6 -3.2,9 C 34,43.1 33.7,42.9 33.5,42.8 31.6,41.6 29.6,40.5 27.7,39.3 29,35.4 29.8,31 27.9,27.2 28.8,31 27.3,34.7 25.4,38 24.9,37.7 24.4,37.4 23.8,37.1 22.1,36.2 20.3,35.4 18.5,34.6 17.7,31.2 20.7,27 17.6,24.1 19.4,27 16.9,30.4 16.1,33.6 15.2,33.3 14.2,32.9 13.3,32.7 9.6,31.7 5.8,31 2,31.2 c 3.6,1 7.1,2.3 10.5,3.7 3.4,1.5 6.6,3.1 9.9,4.8 3.3,1.7 6.6,3.5 10,5 1.7,0.8 3.5,1.5 5.3,2 1.8,0.5 3.8,0.9 5.7,0.7 -1.8,-0.3 -3.5,-1 -5.1,-1.9"
         inkscape:connector-curvature="0"
         style="fill:#f4a24e" />
    </g>
    <g
       id="g5516"
       transform="translate(237.68092,170.32842)">
      <path
         id="path5470"
         d="m 28.4,35.6 c -4.5,-4.5 -10.5,7 -15.1,7.6 -2.1,0.3 -6.2,-2.2 -9.6,1.1 -2.3,2.3 -2.3,6.1 0,8.4 1.6,1.6 3.9,2.1 6,1.5 -0.6,2 -0.2,4.4 1.5,6 2.3,2.3 6.1,2.3 8.4,0 3.3,-3.3 0.9,-7.5 1.1,-9.6 0.6,-4.5 12.2,-10.5 7.7,-15"
         inkscape:connector-curvature="0"
         style="fill:#dddddd" />
      <path
         id="path5472"
         d="m 22.9,46.9 1,-1.1 1.9,-6.7 -7.6,0.9 -1.2,1.2 2.9,0.7 c -1.8,2.3 -3,4.3 -3,4.3 0,0 3.3,0.1 5.6,-0.4 l 0.4,1.1"
         inkscape:connector-curvature="0"
         style="opacity:0.15" />
      <g
         id="g5474"
         style="fill:#ffffff">
        <path
           id="path5476"
           d="m 11.5,58.7 c -0.6,-3 0.6,-5.9 2.8,-7.6 -0.1,0 -0.1,0 -0.2,0 -2.5,0.5 -4.1,3 -3.6,5.6 0.2,0.9 0.6,1.6 1.1,2.3 0,-0.1 0,-0.2 -0.1,-0.3"
           inkscape:connector-curvature="0"
           style="opacity:0.4" />
        <path
           id="path5478"
           d="m 3.8,49.8 c -0.4,-2.2 0.4,-4.2 2,-5.5 0,0 -0.1,0 -0.1,0 -1.8,0.3 -3,2.2 -2.6,4 0.1,0.7 0.4,1.3 0.8,1.7 0,0 0,-0.1 -0.1,-0.2"
           inkscape:connector-curvature="0"
           style="opacity:0.4" />
      </g>
      <path
         id="path5480"
         d="M 54.5,35.4 C 75,14.9 49.1,-11 28.6,9.5 c -8.2,8.2 -6.7,18.2 -8.3,26 -0.6,2.8 -3,4.8 -3,4.8 0,0 1.7,0.6 3.6,1 -1.6,2 -2.7,3.7 -2.7,3.7 0,0 2.4,0.2 4.9,-0.3 0.3,1.2 0.6,2 0.6,2 0,0 2.1,-2.5 4.8,-3 7.8,-1.6 17.7,0 26,-8.3"
         inkscape:connector-curvature="0"
         style="fill:#a8693f" />
      <g
         id="g5482"
         style="fill:#c28d69">
        <path
           id="path5484"
           d="m 40.7,17.8 1.5,0 0,1.5 -1.5,0 z"
           transform="matrix(0.7074,-0.7068,0.7068,0.7074,-0.961,34.6969)"
           inkscape:connector-curvature="0" />
        <path
           id="path5486"
           d="m 45,12.9 1.5,0 0,1.5 -1.5,0 z"
           transform="matrix(0.7074,-0.7068,0.7068,0.7074,3.7484,36.3218)"
           inkscape:connector-curvature="0" />
        <path
           id="path5488"
           d="m 36.6,22.3 1.5,0 0,1.5 -1.5,0 z"
           transform="matrix(0.7071,-0.7071,0.7071,0.7071,-5.3803,33.1712)"
           inkscape:connector-curvature="0" />
        <path
           id="path5490"
           d="m 31.7,27.2 1.5,0 0,1.5 -1.5,0 z"
           transform="matrix(0.7068,-0.7074,0.7074,0.7068,-10.2532,31.1707)"
           inkscape:connector-curvature="0" />
        <path
           id="path5492"
           d="m 33.4,9 1.5,0 0,1.5 -1.5,0 z"
           transform="matrix(0.7073,-0.7069,0.7069,0.7073,3.0984,26.9566)"
           inkscape:connector-curvature="0" />
        <path
           id="path5494"
           d="m 29.1,13.7 1.5,0 0,1.5 -1.5,0 z"
           transform="matrix(0.7071,-0.7071,0.7071,0.7071,-1.5101,25.3087)"
           inkscape:connector-curvature="0" />
        <path
           id="path5496"
           d="m 25.8,19.5 1.5,0 0,1.5 -1.5,0 z"
           transform="matrix(0.7068,-0.7074,0.7074,0.7068,-6.5542,24.7174)"
           inkscape:connector-curvature="0" />
        <path
           id="path5498"
           d="m 38.6,5.2 1.5,0 0,1.5 -1.5,0 z"
           transform="matrix(0.7069,-0.7073,0.7073,0.7069,7.3234,29.5868)"
           inkscape:connector-curvature="0" />
        <path
           id="path5500"
           d="m 34.8,15.6 1.5,0 0,1.5 -1.5,0 z"
           transform="matrix(0.7071,-0.7071,0.7071,0.7071,-1.1374,29.8877)"
           inkscape:connector-curvature="0" />
        <path
           id="path5502"
           d="m 40.4,10 2.1,0 0,2.1 -2.1,0 z"
           transform="matrix(0.7073,-0.7069,0.7069,0.7073,4.2855,32.5232)"
           inkscape:connector-curvature="0" />
        <path
           id="path5504"
           d="m 25.5,25.9 1.5,0 0,1.5 -1.5,0 z"
           transform="matrix(0.7074,-0.7068,0.7068,0.7074,-11.1857,26.3239)"
           inkscape:connector-curvature="0" />
        <path
           id="path5506"
           d="m 30.6,21.2 2.1,0 0,2.1 -2.1,0 z"
           transform="matrix(0.7073,-0.7069,0.7069,0.7073,-6.4897,28.8897)"
           inkscape:connector-curvature="0" />
        <path
           id="path5508"
           d="m 45.6,5.7 1.5,0 0,1.5 -1.5,0 z"
           transform="matrix(0.7076,-0.7066,0.7066,0.7076,8.9808,34.6762)"
           inkscape:connector-curvature="0" />
      </g>
    </g>
    <g
       id="g6031"
       transform="translate(37.987352,170.29548)">
      <path
         id="path5959"
         d="M 62,44.5 C 62,56.5 51.1,62 32.2,62 13.2,62 2.4,56.5 2.4,44.5 2.4,26.9 62,26.9 62,44.5"
         inkscape:connector-curvature="0"
         style="fill:#e7a74f" />
      <path
         id="path5961"
         d="M 61.8,36.2 C 61.8,48.2 51,53.7 32.1,53.7 13.3,53.7 2.4,48.2 2.4,36.2 2.5,18.7 61.8,18.7 61.8,36.2"
         inkscape:connector-curvature="0"
         style="fill:#ba8443" />
      <path
         id="path5963"
         d="m 2.4,36.5 c 0,-5 5.9,-11.9 29.8,-11.9 23.9,0 29.8,7 29.8,11.9 0,9.1 -8.4,15.7 -29.8,15.7 C 10.8,52.2 2.4,45.6 2.4,36.5"
         inkscape:connector-curvature="0"
         style="fill:#826046" />
      <path
         id="path5965"
         d="m 3,31.3 c 0,-5 5.8,-11.9 29.2,-11.9 23.4,0 29.2,7 29.2,11.9 C 61.4,40.4 53.2,47 32.2,47 11.2,47 3,40.4 3,31.3 Z"
         inkscape:connector-curvature="0"
         style="fill:#68472c" />
      <path
         id="path5967"
         d="m 3.2,24.8 c 1.4,-3 5.1,-3.2 17.1,1.9 12,5.1 14.3,7.8 12.9,10.9 -2.6,5.5 -9.7,9.6 -20.5,5 C 1.9,38 0.5,30.4 3.2,24.8"
         inkscape:connector-curvature="0"
         style="fill:#ef4d3c" />
      <path
         id="path5969"
         d="m 4.2,21.4 c 1.4,-3 5.1,-3.2 17.1,1.9 12,5.1 14.3,7.8 12.9,10.9 -2.6,5.5 -9.7,9.6 -20.5,5 C 2.9,34.6 1.5,26.9 4.2,21.4"
         inkscape:connector-curvature="0"
         style="fill:#d33b23" />
      <path
         id="path5971"
         d="m 29.3,34.5 c -0.8,-3.2 2,-5.5 14.9,-8.3 12.9,-2.8 16.4,-2 17.2,1.3 1.5,5.9 -1.5,13.2 -13.1,15.7 -11.5,2.5 -17.6,-2.8 -19,-8.7"
         inkscape:connector-curvature="0"
         style="fill:#ef4d3c" />
      <path
         id="path5973"
         d="M 28,31.3 C 27.2,28.1 30,25.8 42.9,23 55.8,20.2 59.3,21 60.1,24.3 61.6,30.2 58.6,37.5 47,40 35.5,42.5 29.5,37.2 28,31.3"
         inkscape:connector-curvature="0"
         style="fill:#d33b23" />
      <path
         id="path5975"
         d="m 9.7,30.9 20,19.2 19.6,-19.2 z"
         inkscape:connector-curvature="0"
         style="fill:#ffe62e" />
      <path
         id="path5977"
         d="m 60.7,25.9 c 0,0 0.9,3.4 0,4.4 -0.8,0.9 -3.3,-0.1 -4.4,0.7 -1,0.7 -0.7,3.4 -1.9,4 -1.1,0.6 -3.2,-1.1 -4.4,-0.6 -1.1,0.4 -1.5,3.1 -2.7,3.5 -1.2,0.3 -3,-1.7 -4.2,-1.5 -1.2,0.2 -2,2.8 -3.3,3 -1.2,0.2 -2.7,-2.1 -4,-2 -1.2,0.1 -2.4,2.5 -3.7,2.5 -1.3,0 -2.4,-2.5 -3.7,-2.5 -1.3,-0.1 -2.7,2.2 -4,2 -1.3,-0.2 -2.1,-2.7 -3.3,-3 -1.3,-0.3 -3,1.8 -4.2,1.5 -1.2,-0.4 -1.6,-3 -2.7,-3.5 C 13,33.9 10.8,35.6 9.8,35 8.6,34.4 8.9,31.7 7.9,31 6.8,30.2 4.3,31.2 3.5,30.3 c -0.9,-1 0,-4.4 0,-4.4 l 57.2,0"
         inkscape:connector-curvature="0"
         style="fill:#8cc63e" />
      <path
         id="path5979"
         d="M 62,23.4 C 62,29.9 48.7,33.1 32.2,33.1 15.7,33.1 2.4,29.9 2.4,23.4 2.4,11.6 15.7,2 32.2,2 48.7,2 62,11.6 62,23.4 Z"
         inkscape:connector-curvature="0"
         style="fill:#e7a74f" />
      <g
         id="g5981"
         style="fill:#ffc17a">
        <path
           id="path5983"
           d="m 16.3,14.4 -1.6,1.5 -1.5,-1.5 1.5,-1.5 z"
           inkscape:connector-curvature="0" />
        <path
           id="path5985"
           d="M 23.7,12 22.2,13.5 20.7,12 22.2,10.5 Z"
           inkscape:connector-curvature="0" />
        <path
           id="path5987"
           d="m 28,18.8 -1.6,1.5 -1.5,-1.5 1.5,-1.5 z"
           inkscape:connector-curvature="0" />
        <path
           id="path5989"
           d="m 33.2,13.4 -1,1 -1,-1 1,-1 z"
           inkscape:connector-curvature="0" />
        <path
           id="path5991"
           d="m 51.9,17.3 -1,1 -1,-1 1,-1 z"
           inkscape:connector-curvature="0" />
        <path
           id="path5993"
           d="m 58.1,18.3 -1,1 -1,-1 1,-1 z"
           inkscape:connector-curvature="0" />
        <path
           id="path5995"
           d="m 46.4,11 -1,1 -1,-1 1,-1 z"
           inkscape:connector-curvature="0" />
        <path
           id="path5997"
           d="m 15.9,9.7 -1,1 -1,-1 1,-1 z"
           inkscape:connector-curvature="0" />
        <path
           id="path5999"
           d="m 10.5,14.4 -1,1 -1,-1 1,-1 z"
           inkscape:connector-curvature="0" />
        <path
           id="path6001"
           d="m 16.8,21.1 -1,1 -1.1,-1 1.1,-1 z"
           inkscape:connector-curvature="0" />
        <path
           id="path6003"
           d="m 28.5,5.7 -1,1 -1.1,-1 1.1,-1 z"
           inkscape:connector-curvature="0" />
        <path
           id="path6005"
           d="m 38,4.7 -1,1 -1,-1 1,-1 z"
           inkscape:connector-curvature="0" />
        <path
           id="path6007"
           d="m 22.2,6.7 -1,1 -1,-1 1,-1 z"
           inkscape:connector-curvature="0" />
        <path
           id="path6009"
           d="m 50.9,9.1 -1,1 -1,-1 1,-1 z"
           inkscape:connector-curvature="0" />
        <path
           id="path6011"
           d="M 40,21.7 38.5,23.2 37,21.7 38.5,20.2 Z"
           inkscape:connector-curvature="0" />
        <path
           id="path6013"
           d="M 37.6,14 36.1,15.5 34.6,14 36.1,12.5 Z"
           inkscape:connector-curvature="0" />
        <path
           id="path6015"
           d="M 43.2,8.2 41.7,9.7 40.2,8.2 41.7,6.7 Z"
           inkscape:connector-curvature="0" />
        <path
           id="path6017"
           d="m 47.6,14.7 -1.5,1.5 -1.6,-1.5 1.6,-1.5 z"
           inkscape:connector-curvature="0" />
        <path
           id="path6019"
           d="M 54,12.5 52.5,14 50.9,12.5 52.5,11 Z"
           inkscape:connector-curvature="0" />
        <path
           id="path6021"
           d="m 49.1,21.3 -1.5,1.5 -1.5,-1.5 1.5,-1.5 z"
           inkscape:connector-curvature="0" />
        <path
           id="path6023"
           d="M 12.5,18.7 11,20.2 9.5,18.7 11,17.2 Z"
           inkscape:connector-curvature="0" />
      </g>
    </g>
    <g
       id="g6293"
       transform="translate(38.016421,30.362183)">
      <g
         id="g6241"
         style="fill:#f6c799">
        <path
           id="path6243"
           d="M 21.4,7.9 C 17.8,6 15.4,2 15.4,2 c -1,10.5 2.8,13.1 5,13.1 2.9,0.1 5.2,-4.9 1,-7.2"
           inkscape:connector-curvature="0" />
        <path
           id="path6245"
           d="m 42.5,7.9 c 3.6,-1.9 6,-5.9 6,-5.9 1,10.5 -2.8,13.1 -5,13.1 -2.9,0.1 -5.2,-4.9 -1,-7.2"
           inkscape:connector-curvature="0" />
      </g>
      <path
         id="path6247"
         d="M 62,9.3 C 56.3,9.1 51.7,10 48.9,12 c -1.7,3 -2.6,8.1 -2.5,14.4 5.7,0.2 10.7,-0.1 13.1,-2.7 2.3,-2.5 2.6,-8.1 2.5,-14.4"
         inkscape:connector-curvature="0"
         style="fill:#6f6f6d" />
      <path
         id="path6249"
         d="m 60.5,13.1 c -4,-0.1 -7.2,0.5 -9.2,1.9 -1.2,2.1 -1.9,5.7 -1.8,10.1 4,0.1 7.5,-0.1 9.2,-1.9 1.7,-1.8 1.9,-5.7 1.8,-10.1"
         inkscape:connector-curvature="0"
         style="fill:#f4a19a" />
      <path
         id="path6251"
         d="M 2,9.3 C 7.7,9.1 12.3,10 15.1,12 c 1.7,3 2.6,8.1 2.5,14.4 C 12,26.6 6.9,26.3 4.5,23.7 2.2,21.2 1.9,15.6 2,9.3"
         inkscape:connector-curvature="0"
         style="fill:#6f6f6d" />
      <path
         id="path6253"
         d="m 3.5,13.1 c 4,-0.1 7.2,0.5 9.2,1.9 1.2,2.1 1.8,5.7 1.8,10.1 C 10.5,25.2 7,25 5.3,23.2 3.6,21.4 3.4,17.5 3.5,13.1"
         inkscape:connector-curvature="0"
         style="fill:#f4a19a" />
      <path
         id="path6255"
         d="m 53,38.3 c 0,14.1 -21,22 -21,22 0,0 -21,-7.9 -21,-22 0,-20.8 8.2,-31.6 21,-31.6 12.8,0 21,7.7 21,31.6"
         inkscape:connector-curvature="0"
         style="fill:#dae5ef" />
      <g
         id="g6257"
         style="fill:#6f6f6d">
        <path
           id="path6259"
           d="m 45.4,11.3 c -7,7.6 -11.9,17.3 -4.8,26.2 4.7,5.9 8.4,5.9 11.8,4.9 C 52.8,41.1 53,39.7 53,38.2 53,24.3 50.9,16 45.4,11.3"
           inkscape:connector-curvature="0" />
        <path
           id="path6261"
           d="m 23.5,37.6 c 6.9,-8.7 2.4,-18.3 -4.4,-25.8 -6,5 -8.1,14 -8.1,26.5 0,1.5 0.2,2.9 0.6,4.2 3.5,1 7.2,1 11.9,-4.9"
           inkscape:connector-curvature="0" />
      </g>
      <path
         id="path6263"
         d="m 39.4,31.2 c 0,0 2.4,4 6.8,2.7 4.4,-1.3 4.6,-6 4.6,-6 0,0 -2.4,-4 -6.8,-2.7 -4.4,1.3 -4.6,6 -4.6,6"
         inkscape:connector-curvature="0"
         style="fill:#ffffff" />
      <g
         id="g6265"
         style="fill:#3e4347">
        <ellipse
           id="ellipse6267"
           ry="3.9000001"
           rx="3.3"
           cy="29.6"
           cx="45.099998" />
        <path
           id="path6269"
           d="m 39.4,31.2 c 0,0 3.8,-5.9 9.7,-3.5 3.7,1.5 5.1,-0.9 5.1,-0.9 -2,0.3 -2.9,-0.5 -5.1,-1.6 -4,-2 -9.7,-1 -9.7,6"
           inkscape:connector-curvature="0" />
      </g>
      <path
         id="path6271"
         d="m 24.6,31.2 c 0,0 -2.4,4 -6.8,2.7 -4.4,-1.3 -4.6,-6 -4.6,-6 0,0 2.4,-4 6.8,-2.7 4.4,1.3 4.6,6 4.6,6"
         inkscape:connector-curvature="0"
         style="fill:#ffffff" />
      <g
         id="g6273"
         style="fill:#3e4347">
        <ellipse
           id="ellipse6275"
           ry="3.9000001"
           rx="3.3"
           cy="29.6"
           cx="18.9" />
        <path
           id="path6277"
           d="m 24.6,31.2 c 0,0 -3.8,-5.9 -9.7,-3.5 -3.7,1.5 -5.1,-0.9 -5.1,-0.9 2,0.3 2.9,-0.5 5.1,-1.6 4,-2 9.7,-1 9.7,6"
           inkscape:connector-curvature="0" />
      </g>
      <path
         id="path6279"
         d="m 14.8,48.2 c 0,-8.1 4,-4 17.2,-4 13.2,0 17.2,-4.1 17.2,4 C 49.2,59.8 41.1,62 32,62 22.9,62 14.8,59.8 14.8,48.2 Z"
         inkscape:connector-curvature="0"
         style="fill:#f4a19a" />
      <g
         id="g6281"
         style="fill:#bc6464">
        <path
           id="path6283"
           d="m 26.4,50.1 c -1.2,-3.4 -3.4,-5.3 -5,-4.2 -1.6,1 -1.9,4.6 -0.7,8 1.2,3.4 3.4,5.3 5,4.2 1.6,-1.1 1.9,-4.6 0.7,-8"
           inkscape:connector-curvature="0" />
        <path
           id="path6285"
           d="m 42.6,45.9 c -1.6,-1 -3.8,0.8 -5,4.2 -1.2,3.4 -0.9,7 0.7,8 1.6,1 3.8,-0.8 5,-4.2 1.2,-3.4 0.9,-7 -0.7,-8"
           inkscape:connector-curvature="0" />
      </g>
    </g>
    <g
       id="g6427"
       transform="translate(337.57427,30.305613)">
      <path
         id="path6397"
         d="m 58.7,41.5 c 0,-3.5 4.9,-11.4 2.6,-13.8 -2.5,-2.6 -8.3,8.5 -11.2,8.5 -3.5,0 -5.6,-4.3 -7.3,-6.1 -1.4,-1.4 2.6,-7 0.8,-7.4 C 36.1,20.9 35.1,25.3 31,24.2 27.8,23.4 24.5,22.9 21.3,22.9 9.3,22.9 7,31.5 4.9,39.5 4.5,40.7 16.6,51 16.6,51 c 0,0 -9.2,-5.2 -9,-4 1.5,6.6 7.7,10.8 14.7,12.4 2,0.5 4.1,0.7 6.1,0.7 12.8,0 14.8,-9.9 21.7,-11.1 4.2,-0.7 8.7,7.4 11.1,4.9 2.6,-2.6 -2.5,-8.3 -2.5,-12.4"
         inkscape:connector-curvature="0"
         style="fill:#728389" />
      <g
         id="g6399"
         style="fill:#8d9ba3">
        <path
           id="path6401"
           d="m 48.1,60.5 c -1.2,1.2 -3.6,2.7 -6.2,0 -2.6,-2.7 -5.4,-7.5 -4.2,-8.7 1.2,-1.2 5.8,1.7 8.4,4.4 2.6,2.6 3.2,3.1 2,4.3"
           inkscape:connector-curvature="0" />
        <ellipse
           id="ellipse6403"
           ry="3.2"
           rx="2.2"
           cy="35.299999"
           cx="33.400002" />
        <ellipse
           id="ellipse6405"
           ry="2.5"
           rx="1.2"
           cy="39.200001"
           cx="37.599998" />
        <ellipse
           id="ellipse6407"
           ry="1.7"
           rx="0.60000002"
           cy="36"
           cx="39.900002" />
      </g>
      <g
         id="g6409"
         style="fill:#75d6ff">
        <ellipse
           id="ellipse6411"
           ry="1.8"
           rx="1.7"
           cy="44"
           cx="5.3000002" />
        <ellipse
           id="ellipse6413"
           ry="4.5"
           rx="4.3000002"
           cy="23.4"
           cx="6.3000002" />
        <ellipse
           id="ellipse6415"
           ry="8.3000002"
           rx="8"
           cy="10.3"
           cx="12.8" />
      </g>
      <ellipse
         id="ellipse6417"
         ry="7.4000001"
         rx="7.0999999"
         cy="38.5"
         cx="18.700001"
         style="fill:#fcfcfa" />
      <ellipse
         id="ellipse6419"
         ry="5.0999999"
         rx="4.9000001"
         cy="38.5"
         cx="18.700001"
         style="fill:#29251c" />
    </g>
    <text
       xml:space="preserve"
       style="font-style:normal;font-weight:normal;font-size:40px;line-height:124.00000095%;font-family:Sans;letter-spacing:0px;word-spacing:0px;fill:#000000;fill-opacity:1;stroke:none"
       x="67.498825"
       y="148.52281"
       id="text6441"
       sodipodi:linespacing="124%"><tspan
         sodipodi:role="line"
         id="tspan6443"
         x="67.498825"
         y="148.52281"
         dx="0"
         style="font-style:normal;font-variant:normal;font-weight:300;font-stretch:normal;font-size:48px;line-height:124.00000095%;font-family:Orkney;-inkscape-font-specification:'Orkney Light';letter-spacing:1.78999996px;fill:#808080">friends not food</tspan></text>
  </g>
</svg>
